# xmcd
#
# Track frame offsets:
#	151
#	13176
#	27543
#	46746
#	62467
#	79762
#	93431
#	109206
#	124649
#	151932
#	169851
#	186202
#	200003
#	217168
#	238121
#	264844
#
# Disc length: 3822 seconds
#
# Revision: 1
# Processed by: cddbd v1.4PL0 Copyright (c) Steve Scherf et al.
# Submitted via: audiograbber 1.82.02
#
DISCID=d90eec10
DTITLE=Various Artist - Odyssey 2001 CD2
DYEAR=1900
DGENRE=
TTITLE0=Amazing - Solace
TTITLE1=Glorify - FORM
TTITLE2=All My Life - The Parachute Band
TTITLE3=China Store - Soda
TTITLE4=Soccerstar - Steriogram
TTITLE5=Who Am I - WASH
TTITLE6=Hoolio - Royal Rumble
TTITLE7=Comotion - Somersault
TTITLE8=All I Need - The Kumquats
TTITLE9=Stay - A Cat Called Africa
TTITLE10=Thinking of You - Hannah Donald
TTITLE11=Pray to Jesus - Jodi
TTITLE12=Coming Home - The Lads
TTITLE13=Jesus - The Wellington Elim Church
TTITLE14=Cover Me - The Invasion Band
TTITLE15=Higher - Elevator
EXTD=
EXTT0=
EXTT1=
EXTT2=
EXTT3=
EXTT4=
EXTT5=
EXTT6=
EXTT7=
EXTT8=
EXTT9=
EXTT10=
EXTT11=
EXTT12=
EXTT13=
EXTT14=
EXTT15=
PLAYORDER=
